# xmcd
# 
# Track frame offsets:
#     150
#     19744
#     42548
#     58720
#     78652
#     107312
#     125275
#     148650
# 
# Disc length: 2230
# 
# Revision: 1
# Processed by: cddbd v1.5.2PL0 Copyright (c) Steve Scherf et al.
# Submitted via: fre:ac v1.0.17
# 
DISCID=6708b408
DTITLE=Various Artist - 東方 Jazz 2008
DYEAR=2008
DGENRE=Jazz
TTITLE0=鯛の小骨 - Gamble Girls (我儘お嬢様の為の Bigband 出張編)
TTITLE1=Sound Holic Feat. Swing Holic Band - Nitori In Jazz
TTITLE2=鯛の小骨 - Stride Marisa
TTITLE3=鯛の小骨 - Gossip Land
TTITLE4=SOS (Sound of Swing) - Old Fantasia
TTITLE5=Supply - No Mans Night
TTITLE6=SOS (Sound of Swing) - Afternoon Tea in Shanghai
TTITLE7=鯛の小骨 - 東方 Jazz 2008
EXTD=
EXTT0=
EXTT1=
EXTT2=
EXTT3=
EXTT4=
EXTT5=
EXTT6=
EXTT7=
PLAYORDER=
